<svg version="1.2" xmlns="http://www.w3.org/2000/svg" viewBox="0 0 52 48" width="52" height="48"><defs><clipPath clipPathUnits="userSpaceOnUse" id="cp1"><path d="m-780-2281h1440v5244h-1440z"/></clipPath></defs><style>.a{fill:#0c9}</style><g clip-path="url(#cp1)"><path fill-rule="evenodd" class="a" d="m45.4 21v22.6h4.3c0.3 0 0.5 0.2 0.5 0.5v3.1c0 0.3-0.2 0.5-0.5 0.5h-47.4c-0.3 0-0.5-0.2-0.5-0.5v-3.1c0-0.3 0.2-0.5 0.5-0.5h4.3v-22.6h-3.7c-1.9 0-2.7-2.4-1.2-3.5l23.2-16.9q0.5-0.3 1.1-0.3 0.6 0 1.1 0.3l23.2 16.9c1.5 1.1 0.7 3.5-1.2 3.5zm-35.8-4.2h32.9l-16.4-11.9zm1.4 26.8h7v-22.7h-7zm11.4 0h7.1v-22.6h-7.1zm18.6-22.7h-7.2v22.7h7.2z"/></g></svg>