<svg version="1.2" xmlns="http://www.w3.org/2000/svg" viewBox="0 0 39 47" width="39" height="47"><defs><clipPath clipPathUnits="userSpaceOnUse" id="cp1"><path d="m-450-1095h1440v5244h-1440z"/></clipPath></defs><style>.a{fill:none;stroke:#0c9;stroke-linecap:round;stroke-miterlimit:100;stroke-width:5}</style><g clip-path="url(#cp1)"><path class="a" d="m3.8 7.8v31.4c0 1 0.4 2 1.2 2.7 0.7 0.8 1.7 1.2 2.7 1.2h23.5c1.1 0 2.1-0.4 2.8-1.2 0.8-0.7 1.2-1.7 1.2-2.7v-22.9q0-0.8-0.3-1.5-0.3-0.7-0.9-1.3l-8.7-8.5c-0.7-0.7-1.7-1.1-2.7-1.1h-14.9c-1 0-2 0.4-2.7 1.2-0.8 0.7-1.2 1.7-1.2 2.7z"/></g></svg>