<svg version="1.2" xmlns="http://www.w3.org/2000/svg" viewBox="0 0 51 51" width="51" height="51"><defs><clipPath clipPathUnits="userSpaceOnUse" id="cp1"><path d="m-132-2277h1440v5244h-1440z"/></clipPath></defs><style>.a{fill:#fff}</style><g clip-path="url(#cp1)"><path fill-rule="evenodd" class="a" d="m48.7 20.4c0.9 1.6 1.4 3.3 1.4 5.1 0 1.3-0.3 2.6-0.8 3.8-0.5 1.2-1.2 2.2-2.1 3.2 0.4 1.3 0.5 2.7 0.3 4.1-0.1 1.4-0.6 2.7-1.3 3.9-0.8 1.2-1.7 2.2-2.9 3-1.1 0.7-2.4 1.3-3.8 1.5-0.7 1.5-1.8 2.8-3.2 3.7-1.4 0.9-3 1.4-4.7 1.4-1.1 0-2.2-0.2-3.3-0.7-1-0.4-2-1.1-2.8-1.9-1.6 1.6-3.7 2.6-6.1 2.6-1.7 0-3.3-0.5-4.7-1.4-1.4-0.9-2.5-2.2-3.2-3.7-4.7-0.8-8.1-4.9-8.1-9.7q0-1.4 0.4-2.8c-1.8-1.9-2.9-4.4-2.9-7 0-1.8 0.5-3.5 1.4-5.1 1-1.5 2.3-2.8 3.9-3.6-0.4-1.2-0.5-2.5-0.3-3.7 0.3-1.3 0.7-2.5 1.4-3.5 0.8-1.1 1.7-1.9 2.8-2.6 1.1-0.6 2.3-1 3.5-1.1 1.1-2.9 3.8-5 7-5 1.8 0 3.6 0.7 4.9 1.9 1.3-1.2 3.1-1.9 4.9-1.9 1.5 0 3 0.5 4.3 1.4 1.2 0.9 2.2 2.1 2.7 3.6 1.2 0.1 2.5 0.5 3.5 1.1 1.1 0.7 2.1 1.6 2.8 2.6 0.7 1 1.2 2.2 1.4 3.5 0.2 1.2 0.1 2.5-0.3 3.7 1.6 0.8 2.9 2.1 3.9 3.6zm-25.7 21.1v-33.2c0-0.7-0.2-1.3-0.7-1.8-0.4-0.4-1.1-0.7-1.7-0.7-0.7 0-1.3 0.3-1.8 0.7-0.4 0.5-0.7 1.1-0.7 1.8v3l-2.9-0.5c-0.7-0.1-1.5-0.1-2.2 0.2-0.7 0.3-1.3 0.8-1.7 1.5-0.4 0.6-0.6 1.4-0.5 2.1 0 0.8 0.3 1.5 0.7 2.1l2.6 3.3-4.1 0.6c-2.4 0.4-4.2 2.5-4.2 4.9q0 1.3 0.6 2.4c0.4 0.7 1 1.3 1.7 1.8l1.9 1.2-1.1 2q-0.6 1.1-0.6 2.4c0 2.7 2.2 4.9 4.9 4.9h2l0.5 2c0.4 1.7 1.9 3 3.7 3 2 0 3.6-1.7 3.6-3.7zm22.2-16c0-1.2-0.5-2.3-1.2-3.2-0.8-0.9-1.8-1.5-3-1.7l-4.1-0.6 2.6-3.3c0.4-0.6 0.7-1.3 0.7-2.1 0.1-0.7-0.1-1.5-0.5-2.1-0.4-0.7-1-1.2-1.7-1.5-0.7-0.3-1.5-0.3-2.2-0.2l-2.9 0.6v-3c0-1.5-1.1-2.6-2.5-2.6-1.3 0-2.4 1.1-2.4 2.5v33.2c0 2 1.6 3.7 3.6 3.7 0.9 0 1.7-0.3 2.4-0.9 0.6-0.5 1.1-1.3 1.3-2.1l0.4-2h2c2.8 0 5-2.2 5-4.9q0-1.3-0.6-2.4l-1.1-2 1.9-1.2c1.4-1 2.3-2.5 2.3-4.2z"/></g></svg>