<svg version="1.2" xmlns="http://www.w3.org/2000/svg" viewBox="0 0 24 24" width="24" height="24"><defs><clipPath clipPathUnits="userSpaceOnUse" id="cp1"><path d="m-1227-5011h1440v5244h-1440z"/></clipPath></defs><style>.a{fill:#fff}</style><g clip-path="url(#cp1)"><path class="a" d="m0 12.1c0 5.9 4.3 10.9 10 11.9v-8.7h-3v-3.3h3v-2.7c0-3 1.9-4.6 4.7-4.6 0.8 0 1.8 0.1 2.6 0.2v3.1h-1.5c-1.5 0-1.8 0.7-1.8 1.7v2.3h3.2l-0.5 3.3h-2.7v8.7c5.7-1 10-6 10-11.9 0-6.7-5.4-12.1-12-12.1-6.6 0-12 5.4-12 12.1z"/></g></svg>