<svg version="1.2" xmlns="http://www.w3.org/2000/svg" viewBox="0 0 27 27" width="27" height="27"><defs><clipPath clipPathUnits="userSpaceOnUse" id="cp1"><path d="m-793-1118h1440v5244h-1440z"/></clipPath></defs><style>.a{fill:#0c9}</style><g clip-path="url(#cp1)"><path fill-rule="evenodd" class="a" d="m26.6 23.3l-3.3 3.3-6.4-6.4c-1.7 1-3.6 1.7-5.7 1.7-6 0-10.7-4.8-10.7-10.7 0-6 4.7-10.7 10.7-10.7 5.9 0 10.7 4.7 10.7 10.7 0 2.1-0.7 4-1.7 5.7zm-9.5-12.1c0-3.4-2.6-6-5.9-6-3.4 0-6 2.6-6 6 0 3.3 2.6 5.9 6 5.9 3.3 0 5.9-2.6 5.9-5.9z"/></g></svg>