<svg version="1.2" xmlns="http://www.w3.org/2000/svg" viewBox="0 0 23 23" width="23" height="23"><defs><clipPath clipPathUnits="userSpaceOnUse" id="cp1"><path d="m-1182-5012h1440v5244h-1440z"/></clipPath></defs><style>.a{fill:#fff}</style><g clip-path="url(#cp1)"><path class="a" d="m22.5 9.3h-0.9v-0.1h-10.1v4.5h6.4c-1 2.7-3.5 4.5-6.4 4.5-3.7 0-6.8-3-6.8-6.7 0-3.7 3.1-6.8 6.8-6.8 1.7 0 3.3 0.7 4.5 1.8l3.2-3.2c-2-1.9-4.7-3.1-7.7-3.1-6.2 0-11.3 5.1-11.3 11.3 0 6.2 5.1 11.2 11.3 11.2 6.2 0 11.2-5 11.2-11.2q0-1.1-0.2-2.2z"/></g></svg>