<svg version="1.2" xmlns="http://www.w3.org/2000/svg" viewBox="0 0 36 38" width="36" height="38"><defs><clipPath clipPathUnits="userSpaceOnUse" id="cp1"><path d="m-951-192h1440v5244h-1440z"/></clipPath></defs><style>.a{fill:#0c9}</style><g clip-path="url(#cp1)"><path fill-rule="evenodd" class="a" d="m33.8 30c-1 1.2-2.4 1.8-3.9 1.9l-8.7 0.6-3.7-3.3c0.8-2 1-4.1 0.5-6.2-0.5-2-1.7-3.9-3.2-5.2-1.6-1.4-3.6-2.3-5.7-2.5-2.1-0.2-4.2 0.3-6 1.3l-0.4-5.5 31.4-2 1.1 16.9c0.1 1.4-0.4 2.9-1.4 4zm0.2-23.1l-31.4 2-0.1-1.2c-0.1-1.5 0.4-2.9 1.4-4 1-1.2 2.4-1.8 3.8-1.9l20.3-1.3c1.4-0.1 2.9 0.4 4 1.4 1.2 1 1.8 2.4 1.9 3.8zm-20.8 24.6c-1.5 1.3-3.4 1.9-5.4 1.9-2-0.1-3.9-1-5.3-2.4-1.4-1.4-2.2-3.3-2.2-5.3-0.1-2 0.6-3.9 1.9-5.4 1.3-1.5 3.2-2.5 5.2-2.6 1.9-0.2 3.9 0.3 5.5 1.5 1.6 1.2 2.7 3 3 5 0.3 1.9-0.1 3.9-1.2 5.6l6.1 5.4c0.2 0.2 0.4 0.4 0.4 0.7 0 0.3-0.1 0.6-0.3 0.9-0.2 0.2-0.5 0.3-0.8 0.3-0.3 0.1-0.5 0-0.8-0.2l-6.1-5.4zm0.6-6.4c-0.1-1.5-0.8-2.8-1.9-3.8-1.2-1-2.6-1.5-4.1-1.4-1.5 0.1-2.9 0.8-3.9 1.9-1 1.1-1.5 2.6-1.4 4 0.1 1.5 0.8 2.9 1.9 3.9 1.1 1 2.6 1.5 4.1 1.4 1.5-0.1 2.9-0.8 3.9-1.9 0.9-1.1 1.4-2.6 1.4-4.1z"/></g></svg>