<svg version="1.2" xmlns="http://www.w3.org/2000/svg" viewBox="0 0 43 42" width="43" height="42"><defs><clipPath clipPathUnits="userSpaceOnUse" id="cp1"><path d="m-1298-311h1440v5244h-1440z"/></clipPath><clipPath clipPathUnits="userSpaceOnUse" id="cp2"><path d="m4.61-0.59l38.63 5.32-5.18 37.65-38.64-5.33z"/></clipPath></defs><style>.a{fill:#0c9}</style><g clip-path="url(#cp1)"><g clip-path="url(#cp2)"><path fill-rule="evenodd" class="a" d="m33.2 41.7l-28.9-4q-2-0.3-3.3-1.8-1.2-1.6-0.9-3.6l3.9-28.2q0.2-1.9 1.8-3.1 1.6-1.2 3.6-0.9l29 4q2 0.2 3.2 1.8 1.2 1.6 1 3.5l-3.9 28.3q-0.3 1.9-1.9 3.1-1.6 1.2-3.6 0.9zm-20.3-13.6q0.1-0.4-0.2-0.8-0.3-0.4-0.8-0.5l-2.4-0.3q-0.5-0.1-0.9 0.2-0.4 0.3-0.5 0.8l-0.6 4.7q-0.1 0.4 0.2 0.8 0.3 0.4 0.8 0.5l2.4 0.3q0.5 0.1 0.9-0.2 0.4-0.3 0.5-0.8zm11-8q0-0.5-0.3-0.9-0.3-0.4-0.8-0.5l-2.4-0.3q-0.5-0.1-0.9 0.2-0.4 0.3-0.5 0.8l-1.9 14.1q-0.1 0.5 0.2 0.9 0.3 0.4 0.8 0.4l2.5 0.4q0.4 0 0.8-0.3 0.4-0.3 0.5-0.7zm11.3-10.5q0-0.4-0.3-0.8-0.3-0.4-0.8-0.5l-2.4-0.3q-0.5-0.1-0.9 0.2-0.4 0.3-0.4 0.8l-3.6 25.8q-0.1 0.5 0.2 0.9 0.3 0.4 0.8 0.5l2.4 0.3q0.5 0.1 0.9-0.2 0.4-0.3 0.5-0.8z"/></g></g></svg>