<svg version="1.2" xmlns="http://www.w3.org/2000/svg" viewBox="0 0 24 24" width="24" height="24"><defs><clipPath clipPathUnits="userSpaceOnUse" id="cp1"><path d="m-1316-5013h1440v5244h-1440z"/></clipPath><clipPath clipPathUnits="userSpaceOnUse" id="cp2"><path d="m0 0h24v24h-24z"/></clipPath></defs><style>.a{fill:#fff}</style><g clip-path="url(#cp1)"><g clip-path="url(#cp2)"><path fill-rule="evenodd" class="a" d="m24 1.7v20.6c0 0.9-0.8 1.7-1.8 1.7h-20.4c-1 0-1.8-0.8-1.8-1.7v-20.6c0-0.9 0.8-1.7 1.8-1.7h20.4c1 0 1.8 0.8 1.8 1.7zm-17.2 5.1c0.4-0.4 0.6-0.9 0.6-1.4 0-1.2-0.9-2.1-2.1-2.1-1.1 0-2 0.9-2 2.1 0 1.1 0.9 2 2 2 0.6 0 1.1-0.2 1.5-0.6zm0.3 2.2h-3.5v11.5h3.5zm13.3 5.1c0-3.1-0.6-5.4-4.2-5.4-0.7-0.1-1.4 0.1-2 0.4-0.6 0.4-1 0.8-1.4 1.4v-1.5h-3.5v11.4h3.6v-5.7c0-1.5 0.3-2.9 2.1-2.9 1.9 0 1.9 1.7 1.9 3v5.6h3.5z"/></g></g></svg>