<svg version="1.2" xmlns="http://www.w3.org/2000/svg" viewBox="0 0 35 26" width="35" height="26"><defs><clipPath clipPathUnits="userSpaceOnUse" id="cp1"><path d="m-1126-2297h1440v5244h-1440z"/></clipPath></defs><style>.a{fill:#0c9}</style><g clip-path="url(#cp1)"><path class="a" d="m33.9 6.5h-16.5c-0.3 0-0.5 0.3-0.5 0.6v3.1c0 0.2 0.2 0.5 0.5 0.5h16.5c0.3 0 0.5-0.3 0.5-0.5v-3.1c0-0.3-0.2-0.6-0.5-0.6zm-8.6 8.8h-7.9c-0.3 0-0.5 0.2-0.5 0.5v3.1c0 0.3 0.2 0.5 0.5 0.5h7.9c0.3 0 0.5-0.2 0.5-0.5v-3.1c0-0.3-0.2-0.5-0.5-0.5zm-21.5-14.5h-2.8c-0.4 0-0.8 0.3-0.8 0.7v16c0 0.2 0.2 0.4 0.3 0.6l9.6 7c0.4 0.2 0.8 0.1 1.1-0.2l1.6-2.2v-0.1c0.2-0.3 0.2-0.7-0.2-1l-8.1-5.9v-14.2c0-0.4-0.3-0.7-0.7-0.7z"/></g></svg>