<svg version="1.2" xmlns="http://www.w3.org/2000/svg" viewBox="0 0 43 43" width="43" height="43"><defs><clipPath clipPathUnits="userSpaceOnUse" id="cp1"><path d="m-135-1093h1440v5244h-1440z"/></clipPath></defs><style>.a{fill:#0c9}</style><g clip-path="url(#cp1)"><path class="a" d="m38.1 42.9h-21.4c-1.2 0-2.4-0.5-3.3-1.4-0.9-0.9-1.4-2.1-1.4-3.4v-9.5h4.7v9.5h21.4v-33.2h-21.4v9.5h-4.7v-9.5c0-1.3 0.5-2.5 1.4-3.4 0.9-0.9 2.1-1.4 3.3-1.4h21.4c1.3 0 2.5 0.5 3.4 1.4 0.9 0.9 1.4 2.1 1.4 3.4v33.2c0 1.3-0.5 2.5-1.4 3.4-0.9 0.9-2.1 1.4-3.4 1.4zm-16.6-11.9v-7.1h-21.4v-4.8h21.4v-7.1l11.9 9.5z"/></g></svg>