<svg version="1.2" xmlns="http://www.w3.org/2000/svg" viewBox="0 0 25 21" width="25" height="21"><defs><clipPath clipPathUnits="userSpaceOnUse" id="cp1"><path d="m-1271-5014h1440v5244h-1440z"/></clipPath><clipPath clipPathUnits="userSpaceOnUse" id="cp2"><path d="m0 0h25v21h-25z"/></clipPath></defs><style>.a{fill:#fff}</style><g clip-path="url(#cp1)"><g clip-path="url(#cp2)"><path class="a" d="m25 2.6q-1.4 0.6-3 0.8c1.1-0.7 1.9-1.7 2.3-2.9q-1.5 0.9-3.3 1.2c-0.9-1-2.2-1.6-3.7-1.6-2.8 0-5.1 2.4-5.1 5.3q0 0.6 0.1 1.2c-4.3-0.3-8-2.4-10.6-5.6-0.4 0.8-0.7 1.7-0.7 2.7 0 1.8 0.9 3.4 2.3 4.4q-1.2 0-2.3-0.7 0 0.1 0 0.1c0 2.6 1.8 4.7 4.1 5.2q-1.1 0.3-2.3 0.1c0.6 2.1 2.5 3.6 4.8 3.6-1.8 1.5-4 2.3-6.4 2.3q-0.6 0-1.2-0.1c2.3 1.5 5 2.4 7.9 2.4 9.4 0 14.6-8.1 14.6-15q0-0.4-0.1-0.7 1.6-1.1 2.6-2.7z"/></g></g></svg>